<mxfile host="app.diagrams.net" modified="2021-03-05T02:29:31.555Z" agent="5.0 (Windows NT 10.0; Win64; x64) AppleWebKit/537.36 (KHTML, like Gecko) Chrome/88.0.4324.182 Safari/537.36 Edg/88.0.705.81" etag="zEMnYrINZHDRLIljtsgQ" version="14.4.4" type="github">
  <diagram id="GZpHtUrzPGw5-lOSACCk" name="Page-1">
    <mxGraphModel dx="620" dy="371" grid="1" gridSize="10" guides="1" tooltips="1" connect="1" arrows="1" fold="1" page="1" pageScale="1" pageWidth="827" pageHeight="1169" math="0" shadow="0">
      <root>
        <mxCell id="0" />
        <mxCell id="1" parent="0" />
        <mxCell id="z-f15Fx1E8ITesYDsD24-1" value="" style="rounded=0;whiteSpace=wrap;html=1;fillColor=#fff2cc;strokeColor=#d6b656;" vertex="1" parent="1">
          <mxGeometry x="159" y="300" width="399" height="120" as="geometry" />
        </mxCell>
        <mxCell id="z-f15Fx1E8ITesYDsD24-2" value="DOMAIN" style="text;html=1;strokeColor=none;fillColor=none;align=center;verticalAlign=middle;whiteSpace=wrap;rounded=0;" vertex="1" parent="1">
          <mxGeometry x="498" y="280" width="60" height="20" as="geometry" />
        </mxCell>
        <mxCell id="z-f15Fx1E8ITesYDsD24-3" value="LOAD_TARIF" style="rounded=1;whiteSpace=wrap;html=1;dashed=1;align=center;" vertex="1" parent="1">
          <mxGeometry x="303.5" y="330" width="120" height="60" as="geometry" />
        </mxCell>
        <mxCell id="z-f15Fx1E8ITesYDsD24-4" value="" style="rounded=0;whiteSpace=wrap;html=1;fillColor=#dae8fc;strokeColor=#6c8ebf;labelBackgroundColor=#99FFFF;" vertex="1" parent="1">
          <mxGeometry x="160" y="170" width="398" height="100" as="geometry" />
        </mxCell>
        <mxCell id="z-f15Fx1E8ITesYDsD24-8" value="DATA" style="text;html=1;strokeColor=none;fillColor=none;align=center;verticalAlign=middle;whiteSpace=wrap;rounded=0;" vertex="1" parent="1">
          <mxGeometry x="498" y="150" width="60" height="20" as="geometry" />
        </mxCell>
        <mxCell id="z-f15Fx1E8ITesYDsD24-13" style="edgeStyle=orthogonalEdgeStyle;rounded=0;orthogonalLoop=1;jettySize=auto;html=1;exitX=0;exitY=0.5;exitDx=0;exitDy=0;entryX=1;entryY=0.5;entryDx=0;entryDy=0;fontColor=#7EA6E0;" edge="1" parent="1" source="z-f15Fx1E8ITesYDsD24-9" target="z-f15Fx1E8ITesYDsD24-12">
          <mxGeometry relative="1" as="geometry" />
        </mxCell>
        <mxCell id="z-f15Fx1E8ITesYDsD24-20" style="edgeStyle=orthogonalEdgeStyle;rounded=0;orthogonalLoop=1;jettySize=auto;html=1;exitX=0.5;exitY=1;exitDx=0;exitDy=0;entryX=0.5;entryY=0;entryDx=0;entryDy=0;fontColor=#7EA6E0;" edge="1" parent="1" source="z-f15Fx1E8ITesYDsD24-9" target="z-f15Fx1E8ITesYDsD24-3">
          <mxGeometry relative="1" as="geometry" />
        </mxCell>
        <mxCell id="z-f15Fx1E8ITesYDsD24-9" value="&lt;span style=&quot;background-color: rgb(255 , 255 , 255)&quot;&gt;REMOTE_LOAD_TARIF&lt;/span&gt;" style="rounded=0;whiteSpace=wrap;html=1;labelBackgroundColor=#99FFFF;fontColor=#000000;" vertex="1" parent="1">
          <mxGeometry x="380" y="200" width="160" height="40" as="geometry" />
        </mxCell>
        <mxCell id="z-f15Fx1E8ITesYDsD24-12" value="&lt;span style=&quot;background-color: rgb(255 , 255 , 255)&quot;&gt;HTTP_CLIENT_GET&lt;/span&gt;" style="rounded=0;whiteSpace=wrap;html=1;labelBackgroundColor=#99FFFF;fontColor=#000000;dashed=1;" vertex="1" parent="1">
          <mxGeometry x="180" y="200" width="160" height="40" as="geometry" />
        </mxCell>
        <mxCell id="z-f15Fx1E8ITesYDsD24-14" value="" style="rounded=0;whiteSpace=wrap;html=1;fillColor=#f5f5f5;strokeColor=#666666;labelBackgroundColor=#99FFFF;fontColor=#333333;" vertex="1" parent="1">
          <mxGeometry x="159" y="20" width="398" height="120" as="geometry" />
        </mxCell>
        <mxCell id="z-f15Fx1E8ITesYDsD24-15" value="INFRA" style="text;html=1;strokeColor=none;fillColor=none;align=center;verticalAlign=middle;whiteSpace=wrap;rounded=0;" vertex="1" parent="1">
          <mxGeometry x="497" width="60" height="20" as="geometry" />
        </mxCell>
        <mxCell id="z-f15Fx1E8ITesYDsD24-19" style="edgeStyle=orthogonalEdgeStyle;rounded=0;orthogonalLoop=1;jettySize=auto;html=1;exitX=0.5;exitY=1;exitDx=0;exitDy=0;entryX=0.5;entryY=0;entryDx=0;entryDy=0;fontColor=#7EA6E0;" edge="1" parent="1" source="z-f15Fx1E8ITesYDsD24-18" target="z-f15Fx1E8ITesYDsD24-12">
          <mxGeometry relative="1" as="geometry" />
        </mxCell>
        <mxCell id="z-f15Fx1E8ITesYDsD24-22" style="edgeStyle=orthogonalEdgeStyle;rounded=0;orthogonalLoop=1;jettySize=auto;html=1;entryX=0;entryY=0.5;entryDx=0;entryDy=0;fontColor=#7EA6E0;" edge="1" parent="1" source="z-f15Fx1E8ITesYDsD24-18" target="z-f15Fx1E8ITesYDsD24-21">
          <mxGeometry relative="1" as="geometry" />
        </mxCell>
        <mxCell id="z-f15Fx1E8ITesYDsD24-18" value="&lt;span style=&quot;background-color: rgb(255 , 255 , 255)&quot;&gt;HTTP_CLIENT_AXIOS&lt;/span&gt;" style="rounded=0;whiteSpace=wrap;html=1;labelBackgroundColor=#99FFFF;fontColor=#000000;" vertex="1" parent="1">
          <mxGeometry x="283.5" y="60" width="160" height="40" as="geometry" />
        </mxCell>
        <mxCell id="z-f15Fx1E8ITesYDsD24-21" value="&lt;span style=&quot;background-color: rgb(255 , 204 , 204)&quot;&gt;AXIOS&lt;/span&gt;" style="rounded=0;whiteSpace=wrap;html=1;dashed=1;labelBackgroundColor=#99FFFF;align=center;fillColor=#f8cecc;strokeColor=#b85450;" vertex="1" parent="1">
          <mxGeometry x="580" y="50" width="120" height="60" as="geometry" />
        </mxCell>
        <mxCell id="z-f15Fx1E8ITesYDsD24-23" value="" style="rounded=0;whiteSpace=wrap;html=1;fillColor=#d5e8d4;strokeColor=#82b366;" vertex="1" parent="1">
          <mxGeometry x="630" y="170" width="250" height="100" as="geometry" />
        </mxCell>
        <mxCell id="z-f15Fx1E8ITesYDsD24-25" style="edgeStyle=orthogonalEdgeStyle;rounded=0;orthogonalLoop=1;jettySize=auto;html=1;entryX=1;entryY=0.5;entryDx=0;entryDy=0;fontColor=#7EA6E0;" edge="1" parent="1" source="z-f15Fx1E8ITesYDsD24-24" target="z-f15Fx1E8ITesYDsD24-3">
          <mxGeometry relative="1" as="geometry">
            <Array as="points">
              <mxPoint x="765" y="360" />
            </Array>
          </mxGeometry>
        </mxCell>
        <mxCell id="z-f15Fx1E8ITesYDsD24-24" value="&lt;span style=&quot;background-color: rgb(255 , 255 , 255)&quot;&gt;&lt;font color=&quot;#000000&quot;&gt;RENDER_TARIF&lt;/font&gt;&lt;/span&gt;" style="rounded=0;whiteSpace=wrap;html=1;labelBackgroundColor=#99FFFF;fontColor=#7EA6E0;align=center;" vertex="1" parent="1">
          <mxGeometry x="695" y="200" width="120" height="40" as="geometry" />
        </mxCell>
        <mxCell id="z-f15Fx1E8ITesYDsD24-30" style="edgeStyle=orthogonalEdgeStyle;rounded=0;orthogonalLoop=1;jettySize=auto;html=1;exitX=0;exitY=0.25;exitDx=0;exitDy=0;entryX=0;entryY=0.75;entryDx=0;entryDy=0;fontColor=#7EA6E0;" edge="1" parent="1" source="z-f15Fx1E8ITesYDsD24-27" target="z-f15Fx1E8ITesYDsD24-1">
          <mxGeometry relative="1" as="geometry" />
        </mxCell>
        <mxCell id="z-f15Fx1E8ITesYDsD24-31" style="edgeStyle=orthogonalEdgeStyle;rounded=0;orthogonalLoop=1;jettySize=auto;html=1;exitX=0;exitY=0.5;exitDx=0;exitDy=0;entryX=0;entryY=0.5;entryDx=0;entryDy=0;fontColor=#7EA6E0;" edge="1" parent="1" source="z-f15Fx1E8ITesYDsD24-27" target="z-f15Fx1E8ITesYDsD24-4">
          <mxGeometry relative="1" as="geometry">
            <Array as="points">
              <mxPoint x="130" y="490" />
              <mxPoint x="130" y="220" />
            </Array>
          </mxGeometry>
        </mxCell>
        <mxCell id="z-f15Fx1E8ITesYDsD24-32" style="edgeStyle=orthogonalEdgeStyle;rounded=0;orthogonalLoop=1;jettySize=auto;html=1;exitX=0;exitY=0.75;exitDx=0;exitDy=0;entryX=0;entryY=0.5;entryDx=0;entryDy=0;fontColor=#7EA6E0;" edge="1" parent="1" source="z-f15Fx1E8ITesYDsD24-27" target="z-f15Fx1E8ITesYDsD24-14">
          <mxGeometry relative="1" as="geometry">
            <Array as="points">
              <mxPoint x="120" y="505" />
              <mxPoint x="120" y="80" />
            </Array>
          </mxGeometry>
        </mxCell>
        <mxCell id="z-f15Fx1E8ITesYDsD24-33" style="edgeStyle=orthogonalEdgeStyle;rounded=0;orthogonalLoop=1;jettySize=auto;html=1;exitX=1;exitY=0.5;exitDx=0;exitDy=0;entryX=1;entryY=0.5;entryDx=0;entryDy=0;fontColor=#7EA6E0;" edge="1" parent="1" source="z-f15Fx1E8ITesYDsD24-27" target="z-f15Fx1E8ITesYDsD24-23">
          <mxGeometry relative="1" as="geometry" />
        </mxCell>
        <mxCell id="z-f15Fx1E8ITesYDsD24-27" value="&lt;span style=&quot;background-color: rgb(230 , 208 , 222)&quot;&gt;MAIN&lt;/span&gt;" style="rounded=0;whiteSpace=wrap;html=1;labelBackgroundColor=#99FFFF;align=center;fillColor=#e1d5e7;strokeColor=#9673a6;" vertex="1" parent="1">
          <mxGeometry x="159" y="460" width="721" height="60" as="geometry" />
        </mxCell>
        <mxCell id="z-f15Fx1E8ITesYDsD24-34" value="PRESENTATION" style="text;html=1;strokeColor=none;fillColor=none;align=center;verticalAlign=middle;whiteSpace=wrap;rounded=0;" vertex="1" parent="1">
          <mxGeometry x="790" y="150" width="90" height="20" as="geometry" />
        </mxCell>
      </root>
    </mxGraphModel>
  </diagram>
</mxfile>
